<?xml version="1.0" standalone="no"?><!DOCTYPE svg PUBLIC "-//W3C//DTD SVG 1.1//EN" "http://www.w3.org/Graphics/SVG/1.1/DTD/svg11.dtd"><svg t="1677221364838" class="icon" viewBox="0 0 1024 1024" version="1.1" xmlns="http://www.w3.org/2000/svg" p-id="2805" xmlns:xlink="http://www.w3.org/1999/xlink" width="48" height="48"><path d="M221.12 88.64c9.17-1.68 18.53-1.97 27.83-1.89h298.09c14.63 0.08 29.45-0.65 43.86 2.45 32.84 6.55 62.21 28.22 78.31 57.56 10.99 19.43 15.49 42.04 14.55 64.24h85.21c9.96 0.09 19.98-0.47 29.86 1.09 32.92 4.44 63.29 24 81.25 51.9 11.76 18.07 18.3 39.46 18.66 61.02 0.02 188.58-0.01 377.16 0.02 565.74 11.74-0.02 23.49 0.02 35.24-0.02 8.01-0.17 15.89 4.39 19.86 11.34 4.82 7.95 4.1 18.79-1.62 26.11-4.49 5.91-11.88 9.19-19.24 9.06-280.33 0.03-560.67-0.01-841 0.02-6.24 0.15-12.66-1.67-17.31-5.96-7.21-6.23-9.68-17.1-6.18-25.92 3.17-8.34 11.54-14.46 20.5-14.63 12.08-0.01 24.16 0 36.24 0 0.01-229.92-0.01-459.84 0.01-689.76 0.38-24.69 8.92-49.15 24.01-68.68 17.43-22.79 43.55-38.8 71.85-43.67m-20.4 58.03c-18.15 12.97-29.31 35.03-28.99 57.34 0.04 228.91 0 457.83 0.03 686.74 226.84-0.04 453.67 0.07 680.51-0.05-0.05-185.92 0-371.84-0.02-557.75 0.09-5.85 0.03-11.72-1.05-17.48-2.98-17.84-13.38-34.16-27.99-44.75-12.15-8.78-27.18-13.61-42.19-13.23-38.36 0.03-76.71 0-115.06 0.02-4.43 0.03-8.99 0.2-13.21-1.37-7.27-2.44-13.02-8.78-14.82-16.22-0.86-3.22-0.69-6.57-0.69-9.86 0.02-9.03 0-18.06 0.02-27.09-0.07-15.71-5.65-31.32-15.55-43.52-11.38-14.27-28.59-23.74-46.75-25.66-7.63-0.82-15.32-0.47-22.97-0.54-103.02 0.01-206.04-0.02-309.06 0.01-15.02-0.06-30.07 4.5-42.21 13.41z" p-id="2806"></path><path d="M339.25 248.35c33.94-0.21 67.89-0.06 101.83-0.08 16.23-0.05 32.47 5.5 44.96 15.93 15.72 12.7 25.19 32.59 25.44 52.78 0.05 33.67 0 67.34 0.03 101.01 0.04 8.87-1.45 17.77-4.64 26.05-8.21 21.83-28.1 38.78-51 43.28-8.82 1.98-17.89 1.33-26.85 1.43h-89.03c-14.88-0.15-29.68-5.17-41.46-14.27-16.25-12.27-26.68-32.03-27.27-52.42-0.02-34.35 0.01-68.7-0.02-103.05-0.54-18.65 7.11-37.32 20.44-50.35 12.41-12.62 29.9-19.96 47.57-20.31m-3.87 47.19c-9.71 2.28-17.41 11.39-17.63 21.43-0.01 34.35 0 68.71 0 103.07 0.2 9.57 7.16 18.4 16.28 21.14 4.18 1.38 8.64 1.06 12.97 1.07 31.67-0.01 63.34 0.01 95.01 0 12.25 0.03 23.13-10.95 22.97-23.21 0.05-31.68-0.01-63.37 0.03-95.05-0.01-4.07 0.21-8.24-0.95-12.2-2.06-7.33-7.94-13.49-15.21-15.79-4.76-1.58-9.85-1.23-14.79-1.25-30.34 0-60.68 0.01-91.02-0.01-2.57 0.03-5.16 0.19-7.66 0.8zM683.43 425.59c1.82-0.44 3.7-0.58 5.59-0.6 31.34 0.03 62.69-0.01 94.04 0.02 8.67 0.12 16.88 5.73 20.4 13.62 3.45 7.48 2.54 16.77-2.31 23.43-4.27 6.06-11.61 9.91-19.05 9.71-29.03-0.05-58.06-0.01-87.09-0.02-4.76-0.05-9.69 0.49-14.21-1.35-8.21-2.92-14.3-10.76-15.11-19.44-1.53-11.34 6.54-22.94 17.74-25.37zM336.43 562.57c35.19-0.18 70.38-0.01 105.57-0.09 18.2-0.13 36.3 7.43 49.05 20.41 13.07 12.76 20.4 30.94 20.45 49.15v88.03c-0.08 8.6 0.46 17.3-1.19 25.81-2.95 16.48-12.2 31.68-25.35 42.01-12.37 9.76-28.15 15.26-43.93 14.87-31.35-0.03-62.7 0-94.05-0.01-5.31-0.06-10.66 0.27-15.93-0.57-16.5-2.25-32.01-10.73-42.88-23.33-11.18-12.79-17.47-29.85-16.93-46.86 0.03-30.99 0-61.98 0.01-92.97 0.07-5.65-0.32-11.34 0.62-16.94 2.4-17.4 11.84-33.66 25.6-44.53 11.04-8.83 24.85-14.11 38.96-14.98m-0.99 47.04c-9.7 2.29-17.44 11.38-17.69 21.42-0.01 34.31 0.01 68.63-0.01 102.95 0.05 11.71 10.54 22.22 22.25 22.27 34.36-0.01 68.71 0.02 103.06-0.01 11.97-0.31 22.16-11.31 21.94-23.22 0.02-33.35 0-66.7 0.01-100.04 0.25-9.76-6.04-19.37-15.33-22.58-4.34-1.79-9.1-1.4-13.67-1.4-31.67-0.01-63.34 0.01-95.01-0.01-1.87 0.02-3.74 0.16-5.55 0.62zM682.41 565.57c1.82-0.53 3.72-0.8 5.62-0.83 31.67 0.01 63.33 0.01 95 0.01 9.01 0.05 17.49 6.14 20.79 14.46 3.08 7.41 1.94 16.38-2.87 22.8-4.29 5.99-11.59 9.67-18.97 9.5-31.33-0.03-62.67 0.02-94-0.02-11.19-0.1-21.17-9.47-22.26-20.56-1.58-11.05 5.87-22.5 16.69-25.36zM683.48 697.58c1.8-0.44 3.66-0.57 5.52-0.59 31.36 0.03 62.71-0.02 94.07 0.02 11.7 0.07 22.08 10.33 22.44 22 1 12.3-9.2 24.2-21.59 24.71-31.64 0.08-63.28-0.02-94.92 0.05-7.45 0.22-14.82-3.62-19.11-9.68-3.89-5.46-5.31-12.64-3.7-19.16 1.87-8.45 8.85-15.45 17.29-17.35z" p-id="2807"></path></svg>