<svg class="icon" viewBox="0 0 1024 1024" xmlns="http://www.w3.org/2000/svg" width="128" height="128"><path d="M844.95 959.56H454.58c-63.31 0-114.81-51.53-114.81-114.84V684c0-151.98 123.62-275.6 275.56-275.6h229.61c63.31 0 114.84 51.53 114.84 114.84v321.48c.01 63.3-51.52 114.84-114.83 114.84zM615.34 477.29c-113.97 0-206.67 92.74-206.67 206.71v160.72c0 25.36 20.59 45.95 45.92 45.95h390.37c25.36 0 45.95-20.59 45.95-45.95V523.24c0-25.33-20.59-45.95-45.95-45.95H615.34z"/><path d="M236.44 890.67h-64.11c-59.61 0-108.11-48.51-108.11-108.11v-610.5c0-59.61 48.51-108.11 108.11-108.11h610.46c59.61 0 108.11 48.51 108.11 108.11v133c0 19.04-15.41 34.45-34.45 34.45-19.04 0-34.45-15.41-34.45-34.45v-133c0-21.63-17.63-39.22-39.22-39.22H172.32c-21.63 0-39.22 17.59-39.22 39.22v610.5c0 21.6 17.59 39.22 39.22 39.22h64.11c19.04 0 34.45 15.41 34.45 34.45 0 19.03-15.4 34.44-34.44 34.44zm516.68-172.23H546.45c-19.04 0-34.45-15.41-34.45-34.45 0-19.04 15.41-34.45 34.45-34.45h206.67c19.04 0 34.45 15.41 34.45 34.45-.01 19.04-15.41 34.45-34.45 34.45z"/><path d="M512 339.51H305.33c-19.04 0-34.45-15.41-34.45-34.45 0-19.04 15.41-34.45 34.45-34.45H512c19.04 0 34.45 15.41 34.45 34.45 0 19.04-15.41 34.45-34.45 34.45zm34.45 447.82c-19.04 0-34.45-15.41-34.45-34.45V615.11c0-19.04 15.41-34.45 34.45-34.45s34.45 15.41 34.45 34.45v137.78c-.01 19.04-15.42 34.44-34.45 34.44zm206.67 0c-19.04 0-34.45-15.41-34.45-34.45V615.11c0-19.04 15.41-34.45 34.45-34.45 19.04 0 34.45 15.41 34.45 34.45v137.78c-.01 19.04-15.41 34.44-34.45 34.44z"/></svg>