<svg xmlns="http://www.w3.org/2000/svg" xmlns:xlink="http://www.w3.org/1999/xlink" width="1em" height="1em" viewBox="0 0 32 32" fill="none">
<path fill-rule="evenodd" style="fill:#1F9AEE" d="M-0.54 8.02C-0.94 8.03 -1.13 8.47 -0.91 8.69L3.63 13.44C3.87 13.69 4.16 13.89 4.49 14.01C13.55 17.51 16.21 24.23 16.4 27.2C16.77 11.13 5.26 7.72 -0.54 8.02Z"></path>
<path fill-rule="evenodd" style="fill:#F8BF2C" d="M0.579993 14.55C-0.480007 14.55 -0.420007 15.25 -0.160007 15.52L4.33999 20.39C4.73999 20.82 5.28999 21.07 5.86999 21.15C10.84 21.82 14.91 25.4 16.4 27.2C13.61 17.29 4.68999 14.64 0.579993 14.55Z"></path>
<path fill-rule="evenodd" style="fill:#1F9AEE" d="M28.31 14.01C28.63 13.89 28.93 13.69 29.17 13.44L33.7 8.69C33.92 8.47 33.74 8.03 33.34 8.02C27.54 7.72 16.03 11.13 16.4 27.2C16.58 24.23 19.24 17.51 28.31 14.01Z"></path>
<path fill-rule="evenodd" style="fill:#F8BF2C" d="M26.93 21.15C27.51 21.07 28.06 20.82 28.45 20.39L32.95 15.52C33.22 15.25 33.28 14.55 32.22 14.55C28.11 14.64 19.19 17.29 16.4 27.2C17.89 25.4 21.96 21.82 26.93 21.15Z"></path>
<path fill-rule="evenodd" style="fill:#1F9AEE" d="M16.4 9.57999C14.9 9.57999 13.69 10.79 13.69 12.29C13.69 13.79 14.9 15 16.4 15C17.9 15 19.11 13.79 19.11 12.29C19.11 10.79 17.9 9.57999 16.4 9.57999Z"></path>
</svg>