<svg xmlns="http://www.w3.org/2000/svg" width="92" height="64" fill="none" class="mode-img"><g clip-path="url(#a)"><path fill="#F3F3F3" d="M0 0h92v64H0z"></path><path fill="#fff" d="M8 14a6 6 0 0 1 6-6h64a6 6 0 0 1 6 6v50H8V14Z"></path><path fill="#FFBD2E" d="M27 18.783a1.141 1.141 0 1 0 0-2.283 1.141 1.141 0 0 0 0 2.283ZM27 20.152a6.848 6.848 0 1 0 0 13.696 6.848 6.848 0 0 0 0-13.696ZM34.76 20.38a1.141 1.141 0 1 1-2.282 0 1.141 1.141 0 0 1 2.283 0ZM36.359 28.141a1.141 1.141 0 1 0 0-2.282 1.141 1.141 0 0 0 0 2.282ZM34.76 33.62a1.141 1.141 0 1 1-2.282 0 1.141 1.141 0 0 1 2.283 0ZM27 37.5a1.141 1.141 0 1 0 0-2.283 1.141 1.141 0 0 0 0 2.283ZM21.522 33.62a1.141 1.141 0 1 1-2.283 0 1.141 1.141 0 0 1 2.283 0ZM17.641 28.141a1.141 1.141 0 1 0 0-2.282 1.141 1.141 0 0 0 0 2.282ZM21.522 20.38a1.141 1.141 0 1 1-2.283 0 1.141 1.141 0 0 1 2.283 0Z"></path></g><defs><clipPath id="a"><rect width="92" height="64" fill="#fff" rx="9"></rect></clipPath></defs></svg>