<svg xmlns="http://www.w3.org/2000/svg" xmlns:xlink="http://www.w3.org/1999/xlink" width="1em" height="1em" viewBox="0 0 188 26" fill="none">
<path fill-rule="evenodd" style="fill:#1F9AEE"  d="M0.46 3.02C0.06 3.03 -0.13 3.47 0.09 3.69L4.63 8.44C4.87 8.69 5.16 8.89 5.49 9.01C14.55 12.51 17.21 19.23 17.4 22.2C17.77 6.13 6.26 2.72 0.46 3.02Z"></path>
<path fill-rule="evenodd" style="fill:#F8BF2C"  d="M1.57795 9.55222C0.517948 9.55222 0.577948 10.2522 0.837948 10.5222L5.33795 15.3922C5.73795 15.8222 6.28795 16.0722 6.86795 16.1522C11.8379 16.8222 15.9079 20.4022 17.3979 22.2022C14.608 12.2922 5.68795 9.64222 1.57795 9.55222Z"></path>
<path fill-rule="evenodd" style="fill:#1F9AEE"  d="M29.3085 9.01C29.6285 8.89 29.9285 8.69 30.1685 8.44L34.6985 3.69C34.9185 3.47 34.7385 3.03 34.3385 3.02C28.5385 2.72 17.0285 6.13 17.3985 22.2C17.5785 19.23 20.2385 12.51 29.3085 9.01Z"></path>
<path fill-rule="evenodd" style="fill:#F8BF2C"  d="M27.9272 16.1522C28.5072 16.0722 29.0572 15.8222 29.4472 15.3922L33.9472 10.5222C34.2172 10.2522 34.2772 9.55222 33.2172 9.55222C29.1072 9.64222 20.1872 12.2922 17.3972 22.2022C18.8872 20.4022 22.9572 16.8222 27.9272 16.1522Z"></path>
<path fill-rule="evenodd" style="fill:#1F9AEE"  d="M17.396 4.58141C15.896 4.58141 14.686 5.79141 14.686 7.29141C14.686 8.79141 15.896 10.0014 17.396 10.0014C18.896 10.0014 20.106 8.79141 20.106 7.29141C20.106 5.79141 18.896 4.58141 17.396 4.58141Z"></path>
<path fill-rule="evenodd" fill="currentcolor"  d="M46.02,3.69333c0,-0.46 0.23,-0.65 0.68,-0.56c0.91,1.39 1.6,2.63 2.05,3.74h2.46c0.64,-0.74 1.24,-1.85 1.78,-3.32c0.37,-0.28 0.64,-0.18 0.82,0.28c-0.27,0.73 -0.78,1.75 -1.5,3.04h1.77c1.46,0 1.64,1.42 0.55,4.27997c-0.36,0.28 -0.64,0.19 -0.82,-0.27c0.91,-2.11997 0.96,-3.17997 0.14,-3.17997h-12.31c-0.55,0 -0.82,0.27 -0.82,0.83v2.20997c-0.27,0.37 -0.55,0.37 -0.82,0v-2.48997c0,-0.92 0.46,-1.38 1.37,-1.38h1.78c-0.37,-0.65 -0.91,-1.48 -1.64,-2.49c0,-0.37 0.18,-0.56 0.55,-0.56c0.91,1.11 1.59,2.12 2.05,3.04h3.69c-0.46,-1.01 -1.05,-2.07 -1.78,-3.17zM42.46,9.63333h7.8c1.37,0 1.91,0.36997 1.64,1.10997c-0.28,0.37 -1.37,0.96 -3.29,1.79c-0.63,0.19 -0.72,0.46 -0.27,0.83c0.18,0.19 0.37,0.42 0.55,0.69h6.56c0.37,0.28 0.37,0.56 0,0.83h-6.15c1.09,3.23 0.36,4.93 -2.19,5.12c-1.28,0 -2.37,-0.37 -3.28,-1.11c-0.18,-0.36 -0.05,-0.6 0.41,-0.69c0.91,0.74 1.87,1.06 2.87,0.97c1.91,-0.18 2.32,-1.61 1.23,-4.29h-8.07c-0.36,-0.27 -0.36,-0.55 0,-0.83h7.66c-0.18,-0.18 -0.41,-0.41 -0.68,-0.69c-0.37,-0.55 -0.18,-1.01 0.54,-1.38c2.56,-0.92 3.33,-1.43 2.33,-1.52h-7.66c-0.36,-0.28 -0.36,-0.54997 0,-0.82997z"></path>
<path fill-rule="evenodd" fill="currentcolor"  d="M65.8971 7.13775L60.9771 7.13775C61.2471 6.03775 61.4371 5.20775 61.5271 4.65775C61.3371 4.09774 61.0671 4.05774 60.7071 4.51775C60.4271 6.81775 59.6071 9.02775 58.2471 11.1477C58.1571 11.7977 58.3771 11.9777 58.9271 11.7077C59.6571 10.5077 60.2471 9.25775 60.7071 7.96775L65.8971 7.96775L65.8971 12.6677L59.7471 12.6677C59.3871 12.9477 59.3871 13.2177 59.7471 13.4977L65.8971 13.4977L65.8971 18.4778L58.2471 18.4778C57.9671 18.7477 57.9671 19.0278 58.2471 19.3078L73.8371 19.3078C74.1971 19.0278 74.1971 18.7578 73.8371 18.4778L66.7171 18.4778L66.7171 13.4977L72.4671 13.4977C72.8271 13.2277 72.8271 12.9477 72.4671 12.6677L66.7171 12.6677L66.7171 7.96775L72.7371 7.96775C73.0971 7.69775 73.0971 7.41775 72.7371 7.13775L66.7171 7.13775L66.7171 3.82774C66.4471 3.45774 66.1771 3.45774 65.8971 3.82774L65.8971 7.13775Z"></path>
<path fill-rule="evenodd" fill="currentcolor"  d="M83.8656,3.28c0.28,-0.37 0.55,-0.37 0.82,0v1.1h6.98c0.36,0.28 0.36,0.56 0,0.83h-6.98v1.38h6.02c0.36,0.28 0.36,0.56 0,0.83h-6.02v1.39h7.66c0.37,0.27 0.37,0.55 0,0.82h-7.66c-1.18,0.74 -2.5,1.43 -3.96,2.08l3.69,-0.14c1.37,-0.65 2.33,-1.15 2.87,-1.52c0.55,-0.09 0.73,0.14 0.55,0.69c-3.37,1.93 -6.15,3.13 -8.34,3.59l10.53,-0.69c-0.37,-0.46 -0.82,-1.01 -1.37,-1.66c-0.09,-0.55 0.14,-0.73 0.68,-0.55c1.28,1.38 2.28,2.72 3.01,4.01c0,0.46 -0.23,0.6 -0.68,0.41l-1.1,-1.52l-5.6,0.42v3.59c0.09,1.29 -0.91,1.57 -3.01,0.83c-0.27,-0.46 -0.18,-0.74 0.27,-0.83c1.37,0.56 2.0099,0.56 1.92,0v-3.59l-5.61,0.41c-1,0.09 -1.2301,-0.23 -0.68,-0.96c1,-0.37 2.82,-1.02 5.47,-1.94l-3.83,0.14c-0.9101,0.09 -1.0901,-0.18 -0.5501,-0.83c1.5501,-0.55 3.0101,-1.2 4.3801,-1.93h-6.5701c-0.3599,-0.28 -0.3599,-0.56 0,-0.83h7.12v-1.38h-5.47c-0.3699,-0.28 -0.3699,-0.56 0,-0.83h5.47v-1.39h-6.29c-0.3699,-0.27 -0.3699,-0.55 0,-0.82h6.29zM80.9956,15.71c0.55,0 0.73,0.23 0.55,0.69c-1.2801,1.3 -2.55,2.22 -3.83,2.77c-0.55,0.09 -0.7301,-0.14 -0.55,-0.69c1.37,-0.65 2.65,-1.57 3.83,-2.77zM87.6956,15.58c1.37,1.01 2.56,2.12 3.56,3.32c0.09,0.55 -0.14,0.73 -0.68,0.55c-0.91,-1.01 -2.05,-2.07 -3.42,-3.18c-0.19,-0.56 0,-0.79 0.54,-0.69z"></path>
<path fill-rule="evenodd" fill="currentcolor"  d="M109.5,3.54774c0.54,0.18 0.59,0.46 0.13,0.83c-1.18,0.18 -3,0.32 -5.47,0.41l-0.13,2.08h5.88c0.45,0.27 0.45,0.55 0,0.83h-5.88l-0.14,1.93h3.96c1.01,0 1.46,0.45996 1.37,1.37996v5.53c-0.27,0.37 -0.55,0.37 -0.82,0v-5.25c0.09,-0.55 -0.18,-0.83 -0.82,-0.83h-7.6604c-0.54,0 -0.82,0.28 -0.82,0.83v5.25c-0.27,0.37 -0.54,0.37 -0.82,0v-5.52c0.09,-0.83 0.55,-1.29996 1.37,-1.38996h3.4204l0.14,-1.93h-5.6104c-0.45,-0.28 -0.45,-0.56 0,-0.83h5.6104l0.14,-2.07c-1.1,0.09 -2.97,0.14 -5.6104,0.14c-0.55,0 -0.82,0.32 -0.82,0.96v6.77996c0.09,2.58 -0.41,4.84 -1.51,6.77c-0.55,0.18 -0.77,0 -0.68,-0.55c1,-1.94 1.46,-4.01 1.37,-6.22v-7.18996c0.09,-0.92 0.59,-1.39 1.5,-1.39c4.7404,0 8.7104,-0.18 11.9004,-0.55zM104.03,11.8377c0.36,4.71 -2.01,7.29 -7.1204,7.75c-0.36,-0.28 -0.36,-0.56 0,-0.83c4.4704,-0.46 6.5704,-2.77 6.2904,-6.92c0.28,-0.27 0.55,-0.27 0.83,0zM104.71,15.7077c2.1,0.92 3.92,1.99 5.47,3.18c0.18,0.46 0,0.69 -0.55,0.69c-1.82,-1.29 -3.6,-2.3 -5.33,-3.04c-0.36,-0.46 -0.23,-0.73 0.41,-0.83z"></path>
<path fill-rule="evenodd" fill="currentcolor"  d="M116.94,3.4122c0.28,-0.37 0.55,-0.37 0.82,0v1.65h2.47c0.36,0.28 0.36,0.56 0,0.83h-2.47v2.49h1.1c0.64,-0.82 1.32,-1.79 2.05,-2.9c0.45,-0.27 0.68,-0.14 0.68,0.42c-0.63,0.92 -1.23,1.75 -1.78,2.48h1.78c0.46,0.28 0.46,0.56 0,0.83h-2.46l-1.51,1.66h1.37c1.28,0 1.6,0.37 0.96,1.11c-0.28,0.27 -0.73,0.73 -1.37,1.38c-0.09,0.18 -0.05,0.37 0.14,0.55c0.09,0.28 0.18,0.51 0.27,0.69c0.46,-0.18 1.23,-0.46 2.33,-0.83c0.55,0 0.64,0.23 0.27,0.69c-0.82,0.28 -1.59,0.56 -2.32,0.83c0.45,2.4 0.09,3.78 -1.1,4.15c-0.73,0.18 -1.77,0 -3.14,-0.56c-0.37,-0.46 -0.28,-0.73 0.27,-0.82c1,0.46 1.82,0.64 2.46,0.55c0.82,-0.09 1.05,-1.11 0.69,-3.04c-1.55,0.55 -2.87,0.92 -3.97,1.11c-0.54,-0.19 -0.59,-0.46 -0.14,-0.83c1.1,-0.19 2.37,-0.51 3.83,-0.97c-0.09,-0.28 -0.27,-0.65 -0.55,-1.11c-0.09,-0.18 -0.04,-0.41 0.14,-0.69l1.37,-1.38h-2.32c-1.28,1.2 -2.42,2.17 -3.42,2.9c-0.55,0 -0.69,-0.23 -0.41,-0.69c0.82,-0.64 1.73,-1.38 2.73,-2.21h-0.95c-0.46,-0.28 -0.46,-0.55 0,-0.83h1.77l1.64,-1.65h-4.79c-0.45,-0.28 -0.45,-0.56 0,-0.83h3.56v-2.49h-3.01c-0.36,-0.28 -0.36,-0.56 0,-0.83h3.01zM124.06,3.6822l-0.14,1.94h4.79c0.36,0.28 0.36,0.55 0,0.83h-1.1c0.09,2.76 -0.55,5.48 -1.91,8.15c0.91,1.66 2.1,3.13 3.56,4.43c0.18,0.55 0,0.78 -0.55,0.69c-1.28,-1.11 -2.47,-2.49 -3.56,-4.15c-1.55,1.85 -3.28,3.23 -5.2,4.15c-0.54,0 -0.68,-0.23 -0.41,-0.69c2.28,-1.2 3.97,-2.63 5.06,-4.29c-0.73,-1.56 -1.32,-3.27 -1.77,-5.11c-0.37,1.02 -0.87,1.89 -1.51,2.63c-0.46,0.09 -0.64,-0.09 -0.55,-0.56c1.46,-2.12 2.28,-4.79 2.46,-8.01c0.28,-0.47 0.55,-0.47 0.83,-0.01zM123.78,6.4522c-0.09,0.65 -0.23,1.24 -0.41,1.8c0.55,2.39 1.14,4.19 1.78,5.39c1.09,-2.12 1.64,-4.52 1.64,-7.19z"></path>
<path fill-rule="evenodd" fill="currentcolor"  d="M138.195,3.82776c-0.09,-0.55 0.14,-0.74 0.69,-0.55c0.45,0.65 0.77,1.15 0.95,1.52h7.25c0.36,0.28 0.36,0.56 0,0.83h-9.3c-1.01,1.11 -2.01,1.98 -3.01,2.63l8.75,-0.42c-0.45,-0.37 -1,-0.78 -1.64,-1.24c-0.09,-0.46 0.14,-0.65 0.69,-0.56c1.45,1.02 2.78,2.17 3.96,3.46c0.18,0.55004 -0.05,0.74004 -0.68,0.55004c-0.37,-0.46004 -0.87,-0.96004 -1.51,-1.52004l-10.94,0.56c-0.55,0 -0.68,-0.23 -0.41,-0.69c1.09,-0.46 2.37,-1.39 3.83,-2.77h-4.93c-0.36,-0.18 -0.36,-0.46 0,-0.83h6.98c-0.18,-0.37 -0.41,-0.69 -0.68,-0.97zM134.635,10.0478h9.3c1.01,0.09 1.46,0.55 1.37,1.38v6.64c0.09,1.75 -1.32,2.07 -4.24,0.97c-0.36,-0.46 -0.27,-0.74 0.28,-0.83c2.28,1.01 3.33,0.87 3.14,-0.42v-1.66h-10.39v3.18c-0.27,0.46 -0.55,0.46 -0.82,0v-7.88c0,-0.92 0.45,-1.38 1.36,-1.38zM134.915,10.8778c-0.55,0 -0.82,0.28 -0.82,0.83v0.97h10.39v-0.97c0.09,-0.55 -0.18,-0.83 -0.82,-0.83zM134.095,13.5078v1.79h10.39v-1.79z"></path>
<path fill-rule="evenodd" fill="currentcolor"  d="M151.234,3.54774h13.68c0.46,0.28 0.46,0.55 0,0.83h-6.56v8.28996h7.11c0.45,0.28 0.45,0.55 0,0.83h-7.12v5.95c-0.27,0.37 -0.54,0.37 -0.82,0v-5.95h-7.11c-0.45,-0.28 -0.45,-0.55 0,-0.83h7.11v-8.28996h-6.29c-0.45,-0.28 -0.45,-0.55 0,-0.83zM152.054,5.61774c1.37,1.75 2.51,3.69 3.42,5.80996c0,0.55 -0.22,0.69 -0.68,0.41c-1,-2.11996 -2.14,-4.04996 -3.42,-5.79996c0.09,-0.46 0.32,-0.6 0.68,-0.42zM164.094,5.61774c0.45,-0.37 0.73,-0.27 0.82,0.28c-1.01,2.39 -2.42,4.37996 -4.24,5.93996c-0.55,0.19 -0.73,0 -0.55,-0.55c1.83,-1.74996 3.15,-3.63996 3.97,-5.66996z"></path>
<path fill-rule="evenodd" fill="currentcolor"  d="M175.086,3.13666c0.55,-0.18 0.82,-0.05 0.82,0.41c-1.73,2.68 -3.55,4.66 -5.47,5.95c2.37,-0.09 5.98,-0.42 10.81,-0.97c-0.55,-0.64 -1.32,-1.47 -2.33,-2.49c-0.09,-0.46 0.09,-0.69 0.55,-0.69c1.82,1.75 3.33,3.51 4.51,5.25004c0.09,0.56 -0.13,0.74 -0.68,0.56c-0.46,-0.65 -0.96,-1.30004 -1.51,-1.94004c-3.82,0.46 -8.02,0.83004 -12.58,1.11004c-0.36,-0.19 -0.41,-0.46004 -0.13,-0.83004c2.46,-1.66 4.46,-3.78 6.01,-6.36zM171.946,11.4267h8.89c1,0 1.46,0.46 1.37,1.38v5.26c0.09,1.01 -0.37,1.47 -1.37,1.38h-9.03c-0.91,0.09 -1.37,-0.37 -1.37,-1.38v-5.26c0,-0.92 0.51,-1.38 1.51,-1.38zM172.216,12.2567c-0.63,0 -0.95,0.28 -0.95,0.83v4.7c0,0.64 0.27,0.92 0.82,0.83h8.48c0.63,0.09 0.91,-0.19 0.81,-0.83v-4.7c0.1,-0.55 -0.18,-0.83 -0.81,-0.83z"></path>
</svg>