<svg xmlns="http://www.w3.org/2000/svg" width="92" height="64" fill="none" class="mode-img"><g clip-path="url(#a)"><path fill="#5E5E5E" d="M0 0h46v64H0z"></path><path fill="#F3F3F3" d="M46 0h46v64H46z"></path><path fill="#242424" d="M8 14a6 6 0 0 1 6-6h32v56H8V14Z"></path><path fill="#fff" d="M27 18.75a8.25 8.25 0 1 0 8.08 6.58.75.75 0 0 0-1.46-.039 4.025 4.025 0 0 1-7.915-1.018 4.025 4.025 0 0 1 3.004-3.893.75.75 0 0 0-.038-1.46c-.54-.112-1.1-.17-1.67-.17ZM54 14a6 6 0 0 1 6-6h32v56H54V14Z"></path><path fill="#FFBD2E" d="M73 18.783a1.141 1.141 0 1 0 0-2.283 1.141 1.141 0 0 0 0 2.283ZM73 20.152a6.848 6.848 0 1 0 0 13.696 6.848 6.848 0 0 0 0-13.696ZM80.76 20.38a1.141 1.141 0 1 1-2.282 0 1.141 1.141 0 0 1 2.283 0ZM82.359 28.141a1.141 1.141 0 1 0 0-2.282 1.141 1.141 0 0 0 0 2.282ZM80.76 33.62a1.141 1.141 0 1 1-2.282 0 1.141 1.141 0 0 1 2.283 0ZM73 37.5a1.141 1.141 0 1 0 0-2.283 1.141 1.141 0 0 0 0 2.283ZM67.522 33.62a1.141 1.141 0 1 1-2.283 0 1.141 1.141 0 0 1 2.283 0ZM63.641 28.141a1.141 1.141 0 1 0 0-2.282 1.141 1.141 0 0 0 0 2.282ZM67.522 20.38a1.141 1.141 0 1 1-2.283 0 1.141 1.141 0 0 1 2.283 0Z"></path></g><defs><clipPath id="a"><rect width="92" height="64" fill="#fff" rx="9"></rect></clipPath></defs></svg>