<svg xmlns="http://www.w3.org/2000/svg" width="92" height="64" fill="none" class="mode-img"><g clip-path="url(#a)"><path fill="#5E5E5E" d="M0 0h92v64H0z"></path><path fill="#242424" d="M8 14a6 6 0 0 1 6-6h64a6 6 0 0 1 6 6v50H8V14Z"></path><path fill="#fff" d="M27 18.75a8.25 8.25 0 1 0 8.08 6.58.75.75 0 0 0-1.46-.039 4.025 4.025 0 0 1-7.915-1.018 4.025 4.025 0 0 1 3.004-3.893.75.75 0 0 0-.038-1.46c-.54-.112-1.1-.17-1.67-.17Z"></path></g><defs><clipPath id="a"><rect width="92" height="64" fill="#fff" rx="9"></rect></clipPath></defs></svg>